HIERARCHY
ROOT Hips
{
 OFFSET 0.000000 0.000000 0.000000
 CHANNELS 6 Xposition Yposition Zposition Yrotation Xrotation Zrotation
 JOINT Chest
 {
  OFFSET 0.000000 9.585900 0.002600
  CHANNELS 3 Yrotation Xrotation Zrotation
  JOINT Chest2
  {
   OFFSET 0.000000 9.601200 -0.005300
   CHANNELS 3 Yrotation Xrotation Zrotation
   JOINT Chest3
   {
    OFFSET 0.000000 9.561800 0.000000
    CHANNELS 3 Yrotation Xrotation Zrotation
    JOINT Chest4
    {
     OFFSET 0.000000 9.552100 0.000000
     CHANNELS 3 Yrotation Xrotation Zrotation
     JOINT Neck
     {
      OFFSET 0.000000 14.453000 0.000000
      CHANNELS 3 Yrotation Xrotation Zrotation
      JOINT Head
      {
       OFFSET 0.000000 8.936500 -0.011300
       CHANNELS 3 Yrotation Xrotation Zrotation
       End Site
       {
        OFFSET 0.000000 17.073600 -0.006000
       }
      }
     }
     JOINT RightCollar
     {
      OFFSET -2.921100 9.558500 0.000000
      CHANNELS 3 Yrotation Xrotation Zrotation
      JOINT RightShoulder
      {
       OFFSET -13.519700 0.000000 0.000000
       CHANNELS 3 Yrotation Xrotation Zrotation
       JOINT RightElbow
       {
        OFFSET 0.000000 -29.696600 0.000000
        CHANNELS 3 Yrotation Xrotation Zrotation
        JOINT RightWrist
        {
         OFFSET 0.000000 -24.004700 0.000000
         CHANNELS 3 Yrotation Xrotation Zrotation
         End Site
         {
          OFFSET 0.000000 -17.728500 0.000000
         }
        }
       }
      }
     }
     JOINT LeftCollar
     {
      OFFSET 2.921100 9.558500 0.000000
      CHANNELS 3 Yrotation Xrotation Zrotation
      JOINT LeftShoulder
      {
       OFFSET 13.519700 0.000000 0.000000
       CHANNELS 3 Yrotation Xrotation Zrotation
       JOINT LeftElbow
       {
        OFFSET 0.000000 -29.696600 0.000000
        CHANNELS 3 Yrotation Xrotation Zrotation
        JOINT LeftWrist
        {
         OFFSET 0.000000 -24.004700 0.000000
         CHANNELS 3 Yrotation Xrotation Zrotation
         End Site
         {
          OFFSET 0.000000 -17.728500 0.000000
         }
        }
       }
      }
     }
    }
   }
  }
 }
 JOINT RightHip
 {
  OFFSET -7.771700 -0.012900 -0.001300
  CHANNELS 3 Yrotation Xrotation Zrotation
  JOINT RightKnee
  {
   OFFSET 0.000000 -40.869800 0.001200
   CHANNELS 3 Yrotation Xrotation Zrotation
   JOINT RightAnkle
   {
    OFFSET 0.000000 -39.717900 0.002100
    CHANNELS 3 Yrotation Xrotation Zrotation
    JOINT RightToe
    {
     OFFSET 0.000000 -4.965400 11.033500
     CHANNELS 3 Yrotation Xrotation Zrotation
     End Site
     {
      OFFSET 0.000000 -1.423100 5.872300
     }
    }
   }
  }
 }
 JOINT LeftHip
 {
  OFFSET 7.771700 -0.012900 -0.001300
  CHANNELS 3 Yrotation Xrotation Zrotation
  JOINT LeftKnee
  {
   OFFSET 0.000000 -40.869800 0.001200
   CHANNELS 3 Yrotation Xrotation Zrotation
   JOINT LeftAnkle
   {
    OFFSET 0.000000 -39.717900 0.002100
    CHANNELS 3 Yrotation Xrotation Zrotation
    JOINT LeftToe
    {
     OFFSET 0.000000 -4.965400 11.033500
     CHANNELS 3 Yrotation Xrotation Zrotation
     End Site
     {
      OFFSET 0.000000 -1.423100 5.872300
     }
    }
   }
  }
 }
}
MOTION
Frames: 16
Frame Time: 0.008333
-30.373930 57.764340 12.591051 177.288377 -42.704961 -2.696617 2.895138 18.077745 2.332162 1.542706 10.345705 1.265706 1.945588 12.932832 1.608800 1.540528 10.349430 1.262480 1.270407 19.316482 4.375685 0.940433 0.142659 7.629293 0.365595 1.531060 -0.245808 -4.394142 -13.066572 -3.952153 -83.416328 -45.569013 143.635847 6.998278 -0.210277 4.176179 -5.417657 -2.308480 -0.099845 -1.282871 -9.031360 8.735118 79.114411 -44.327406 -136.592721 4.198786 -4.576413 -11.943148 3.262903 -29.196379 -3.988149 -35.780657 73.960963 -39.969573 6.252735 -13.888162 11.586641 0.014641 -0.028252 0.039354 -4.917655 -26.395729 5.886992 90.005978 83.151361 90.458932 0.957789 -22.443314 -17.329323 0.016200 0.057368 0.015507
-30.375176 57.764745 12.591274 177.301550 -42.715503 -2.704067 2.899411 18.082238 2.347546 1.541167 10.349294 1.265436 1.963537 12.933844 1.629281 1.512328 10.351737 1.248147 1.281410 19.300979 4.366381 0.943342 0.113948 7.600911 0.367651 1.528339 -0.245130 -4.391421 -13.066024 -3.950495 -83.396419 -45.541542 143.623917 7.029891 -0.193528 4.164078 -5.400923 -2.309849 -0.097023 -1.273789 -9.025683 8.765075 79.092038 -44.308186 -136.588548 4.191381 -4.574959 -11.902716 3.280521 -29.183595 -3.974813 -35.854294 73.949986 -40.039462 6.225995 -13.888729 11.598925 0.038198 -0.031703 0.042453 -4.925646 -26.383358 5.894111 89.971199 83.154073 90.413176 0.947579 -22.445301 -17.320036 0.018511 0.060838 0.015716
-30.377498 57.764997 12.591743 177.313924 -42.724161 -2.705395 2.898625 18.086487 2.349749 1.548804 10.351591 1.272622 1.957223 12.936485 1.628572 1.516663 10.351794 1.256014 1.264385 19.296639 4.354439 0.963337 0.074067 7.568383 0.365118 1.524817 -0.241388 -4.383002 -13.060970 -3.945219 -83.402186 -45.551823 143.613857 7.024888 -0.197299 4.163380 -5.386180 -2.315187 -0.084330 -1.292572 -9.017528 8.759949 79.088077 -44.313949 -136.577705 4.198784 -4.583735 -11.896781 3.283674 -29.173269 -3.980504 -35.862192 73.952293 -40.058373 6.258509 -13.905299 11.603285 0.017684 -0.033283 0.042331 -4.930005 -26.375965 5.891017 89.961518 83.154374 90.395553 0.941406 -22.442717 -17.313725 0.016429 0.060743 0.017037
-30.380434 57.764609 12.592916 177.319310 -42.726965 -2.699622 2.918773 18.085197 2.365222 1.535754 10.353682 1.265293 1.945092 12.938570 1.624613 1.555144 10.351718 1.268932 1.242952 19.280753 4.342975 0.965549 0.041673 7.549687 0.341580 1.518070 -0.236759 -4.375842 -13.047571 -3.935406 -83.425189 -45.573948 143.615271 6.978846 -0.208023 4.148965 -5.418762 -2.319254 -0.083594 -1.296229 -9.012239 8.766553 79.093189 -44.324014 -136.567878 4.214540 -4.591852 -11.905879 3.293732 -29.170230 -3.986880 -35.867270 73.955472 -40.071903 6.234698 -13.909088 11.613426 0.022470 -0.047838 0.030896 -4.928657 -26.375522 5.884896 89.967639 83.157619 90.398319 0.944068 -22.441491 -17.325319 0.016123 0.060537 0.027702
-30.383582 57.764263 12.594084 177.323998 -42.729199 -2.693609 2.925118 18.085764 2.367622 1.533424 10.354248 1.263934 1.952585 12.936799 1.627906 1.550610 10.354360 1.268693 1.251978 19.261478 4.335037 0.993941 -0.025255 7.511277 0.350299 1.518081 -0.228458 -4.365871 -13.029499 -3.901955 -83.445113 -45.598183 143.612807 6.975478 -0.201524 4.141500 -5.410053 -2.321509 -0.066767 -1.315721 -9.009829 8.752623 79.098646 -44.341799 -136.552875 4.228999 -4.594384 -11.915913 3.325886 -29.166101 -3.991582 -35.863724 73.958275 -40.074839 6.217179 -13.911971 11.629609 0.013134 -0.050839 0.034972 -4.927171 -26.375357 5.878425 89.980240 83.159645 90.402334 0.943426 -22.441673 -17.321594 0.015905 0.060302 0.027808
-30.387384 57.764089 12.595043 177.333702 -42.731755 -2.688896 2.927372 18.087508 2.366844 1.523429 10.355329 1.259154 1.966543 12.936981 1.633780 1.556789 10.354971 1.273573 1.249359 19.244142 4.323426 0.978725 -0.022973 7.518620 0.349509 1.516245 -0.220332 -4.376566 -13.022511 -3.898669 -83.439065 -45.592346 143.598523 6.963810 -0.197195 4.134576 -5.387685 -2.334225 -0.046349 -1.340707 -8.995960 8.742286 79.093546 -44.349133 -136.545775 4.234087 -4.591744 -11.908980 3.334926 -29.161963 -4.002833 -35.850118 73.958523 -40.065129 6.213803 -13.912494 11.621576 0.011144 -0.053106 0.047587 -4.927452 -26.375173 5.869716 89.983135 83.156276 90.396742 0.934202 -22.440391 -17.313060 0.019140 0.059541 0.024741
-30.389336 57.764075 12.596085 177.342550 -42.733914 -2.696796 2.931268 18.088268 2.375756 1.531074 10.356656 1.266506 1.991213 12.935313 1.648037 1.543730 10.354895 1.273183 1.258771 19.217525 4.313932 0.967096 -0.050025 7.511626 0.342532 1.517318 -0.218028 -4.365063 -12.987748 -3.852448 -83.423368 -45.617608 143.566179 6.992215 -0.205355 4.129543 -5.407892 -2.338279 -0.047497 -1.304606 -8.977920 8.763193 79.076180 -44.341467 -136.566439 4.236272 -4.590041 -11.900534 3.342380 -29.156431 -3.999688 -35.866586 73.952218 -40.073726 6.202714 -13.911543 11.623214 0.014379 -0.062815 0.033015 -4.932469 -26.376333 5.876182 89.999785 83.153652 90.408139 0.925858 -22.436489 -17.312234 0.017336 0.057238 0.026372
-30.393122 57.764021 12.596990 177.347662 -42.735075 -2.693332 2.928418 18.089255 2.370413 1.551518 10.353100 1.277948 1.987269 12.935318 1.650046 1.534727 10.356969 1.272862 1.259636 19.208689 4.309728 1.015739 -0.135757 7.473727 0.349653 1.520291 -0.212712 -4.368121 -12.975374 -3.842494 -83.394607 -45.612823 143.532739 6.999882 -0.211238 4.119567 -5.411175 -2.341763 -0.044826 -1.306926 -8.971536 8.760621 79.073337 -44.345644 -136.565217 4.223738 -4.583231 -11.874134 3.355954 -29.151525 -4.007566 -35.862534 73.950506 -40.073895 6.204143 -13.917725 11.627239 -0.000403 -0.063693 0.031541 -4.929517 -26.377607 5.875527 89.981593 83.151396 90.378162 0.915391 -22.430953 -17.303537 0.015017 0.056483 0.026501
-30.396208 57.763877 12.598065 177.346483 -42.734246 -2.691838 2.940343 18.084683 2.378723 1.547473 10.354694 1.277352 1.994208 12.933508 1.652658 1.532363 10.358277 1.276178 1.297128 19.170248 4.301538 1.008779 -0.169418 7.462657 0.365065 1.525544 -0.205706 -4.388913 -12.974293 -3.846980 -83.383855 -45.608519 143.520084 6.980346 -0.212730 4.104231 -5.413151 -2.344031 -0.039416 -1.295041 -8.961160 8.766556 79.064014 -44.358833 -136.561841 4.223933 -4.589063 -11.863468 3.375916 -29.148464 -4.007593 -35.882988 73.937475 -40.094504 6.198722 -13.914445 11.632072 -0.001368 -0.065594 0.034482 -4.917572 -26.381547 5.882445 89.975149 83.158170 90.370382 0.903128 -22.425727 -17.295413 0.019301 0.052644 0.027155
-30.399110 57.763818 12.598984 177.347561 -42.733048 -2.694576 2.956026 18.078960 2.393889 1.543475 10.355076 1.274595 1.985905 12.935689 1.651056 1.552714 10.353234 1.279637 1.279510 19.169890 4.300888 1.038011 -0.222122 7.435383 0.346828 1.531724 -0.201903 -4.377351 -12.960663 -3.828304 -83.390957 -45.624081 143.516372 6.962207 -0.215923 4.088093 -5.423505 -2.340574 -0.023009 -1.270604 -8.950363 8.784596 79.044916 -44.368300 -136.532926 4.225071 -4.586931 -11.867200 3.378242 -29.148012 -4.005461 -35.883473 73.933110 -40.095038 6.195320 -13.912309 11.633953 0.000779 -0.066757 0.033079 -4.908857 -26.386866 5.889360 89.986840 83.162837 90.381022 0.894870 -22.421200 -17.286687 0.019964 0.049861 0.025881
-30.403083 57.763715 12.599610 177.346586 -42.731399 -2.690515 2.962434 18.075148 2.396616 1.551109 10.353448 1.277409 1.992645 12.932848 1.653463 1.573460 10.346118 1.284294 1.267355 19.156024 4.293889 1.041360 -0.259647 7.421411 0.309866 1.544562 -0.195817 -4.362824 -12.950241 -3.810145 -83.341524 -45.617499 143.463329 6.990059 -0.224760 4.077002 -5.425479 -2.330780 0.009012 -1.300600 -8.947828 8.755937 79.036786 -44.383694 -136.506598 4.224376 -4.585338 -11.865205 3.382268 -29.148240 -4.009941 -35.879695 73.930835 -40.093824 6.192055 -13.912195 11.637986 -0.000502 -0.066885 0.029837 -4.901578 -26.390804 5.888098 89.987324 83.166151 90.375863 0.896788 -22.418656 -17.281633 0.016548 0.050321 0.025804
-30.406818 57.763960 12.599601 177.341884 -42.732351 -2.685598 2.970018 18.073752 2.399976 1.565341 10.349441 1.285497 2.002069 12.930873 1.658867 1.547493 10.351832 1.278514 1.286715 19.131734 4.285372 1.047205 -0.300300 7.405142 0.317550 1.548070 -0.190118 -4.353821 -12.939015 -3.792718 -83.331484 -45.634278 143.446952 6.987177 -0.235078 4.058666 -5.411922 -2.330485 0.026143 -1.290920 -8.948092 8.755956 79.013864 -44.377866 -136.494187 4.219919 -4.579674 -11.857914 3.385504 -29.146774 -4.012887 -35.869354 73.929722 -40.088772 6.197360 -13.911033 11.641040 0.005629 -0.072043 0.020230 -4.892706 -26.391412 5.888923 89.996035 83.173493 90.379983 0.896717 -22.417113 -17.275319 0.019643 0.048520 0.025084
-30.409450 57.764268 12.599245 177.342806 -42.733229 -2.690717 2.972664 18.073282 2.407103 1.570254 10.348461 1.290163 2.005827 12.931367 1.661928 1.554001 10.349920 1.279306 1.309653 19.085223 4.270246 1.034446 -0.323006 7.397487 0.315915 1.552700 -0.183300 -4.337155 -12.918078 -3.767259 -83.339253 -45.665530 143.440104 6.985607 -0.245713 4.044722 -5.417374 -2.330308 0.042112 -1.239204 -8.945277 8.764113 78.968690 -44.347440 -136.510972 4.211517 -4.569657 -11.846818 3.378406 -29.145743 -4.009296 -35.888714 73.926587 -40.110373 6.216541 -13.915362 11.639042 -0.008989 -0.073929 0.015474 -4.877960 -26.393962 5.893811 90.009151 83.182732 90.403634 0.890776 -22.416072 -17.270714 0.023406 0.045520 0.025235
-30.412429 57.764977 12.597963 177.343670 -42.737694 -2.692585 2.974204 18.076415 2.411001 1.573547 10.347917 1.293653 2.010963 12.932330 1.666352 1.570561 10.350550 1.290197 1.298148 19.059462 4.251098 1.045666 -0.371133 7.373179 0.297864 1.554087 -0.192146 -4.329092 -12.903666 -3.745132 -83.331447 -45.680033 143.429000 6.983754 -0.251961 4.034850 -5.440755 -2.333442 0.040350 -1.221603 -8.942991 8.761473 78.953835 -44.356098 -136.495684 4.221815 -4.577276 -11.865725 3.373115 -29.140888 -4.008080 -35.909505 73.927209 -40.129292 6.209467 -13.919686 11.632811 0.000100 -0.072878 0.018260 -4.869716 -26.389460 5.896538 90.011140 83.187983 90.408657 0.884414 -22.417910 -17.267467 0.026499 0.045212 0.025329
-30.415767 57.766010 12.595847 177.344899 -42.745025 -2.690986 2.976495 18.080661 2.415291 1.570889 10.350398 1.290193 2.019143 12.933541 1.674179 1.571907 10.350842 1.292572 1.302920 19.032937 4.235717 1.057786 -0.420926 7.344089 0.296053 1.553348 -0.194686 -4.333439 -12.897279 -3.739884 -83.307194 -45.675566 143.410317 6.980865 -0.255503 4.025626 -5.452742 -2.337189 0.044921 -1.199164 -8.942561 8.764268 78.947928 -44.361670 -136.487298 4.227807 -4.571898 -11.868291 3.372206 -29.133071 -4.011044 -35.929954 73.930167 -40.147318 6.201701 -13.923593 11.626915 0.008101 -0.073649 0.021463 -4.864260 -26.381984 5.895114 90.036031 83.192243 90.432716 0.877859 -22.419087 -17.271956 0.026503 0.043904 0.027799
-30.418212 57.766393 12.594163 177.345136 -42.746236 -2.692517 2.983226 18.081857 2.423844 1.571890 10.351260 1.292295 2.019873 12.931967 1.677086 1.566713 10.352035 1.290995 1.314250 19.004790 4.220823 1.069366 -0.470814 7.310611 0.294286 1.550794 -0.194736 -4.327387 -12.877738 -3.727668 -83.297943 -45.683945 143.407256 6.991068 -0.260815 4.019743 -5.446779 -2.354263 0.074337 -1.182733 -8.930687 8.748473 78.940643 -44.378469 -136.469937 4.243632 -4.578672 -11.883635 3.366082 -29.131138 -4.010823 -35.930479 73.932629 -40.146474 6.203975 -13.929234 11.615019 0.011940 -0.074645 0.020451 -4.860625 -26.380328 5.899661 90.057755 83.188237 90.450331 0.867287 -22.423249 -17.265376 0.026519 0.046048 0.024497
